<?xml version="1.0" encoding="utf-8"?>
<svg xmlns="http://www.w3.org/2000/svg"
     xmlns:xlink="http://www.w3.org/1999/xlink"
     width="128" height="128" viewBox="0 0 128 128"
     preserveAspectRatio="xMidYMid meet" role="img" aria-hidden="true">
  <path fill="#1A202C" d="M25.57,72.69c2.49,18.91,19.84,32.23,38.75,29.74c18.91-2.49,32.23-19.84,29.74-38.75l-17.12,2.25
    c1.24,9.46-5.41,18.13-14.87,19.38c-9.46,1.24-18.13-5.41-19.38-14.87c-1.24-9.46,5.41-18.13,14.87-19.38l57.77-7.61L113,61.18
    l-1.81,13.76c-3.74,28.37-29.76,48.34-58.13,44.61S4.71,89.79,8.45,61.42c3.18-24.14,22.5-42.21,45.68-44.75L120,8l-2.33,17.73
    l-62.36,8.21C36.4,36.43,23.08,53.78,25.57,72.69z"/>
</svg>
