<svg xmlns="http://www.w3.org/2000/svg" width="128" height="128" viewBox="0 0 128 128">
  <g transform="translate(15.5, 8)">
    <path fill="#1A202C" d="M48.5,112L0,84V28L48.5,0l13.8,8v15.9l-34.7,20v24.1l20.9,12.1l20.9-12.1v-8.2L48.5,71.9l-13.8-8V48l48.5-28
      L97,28v56L48.5,112z M6.7,82.7l41.8,24.1l44-25.4V30.6l-7.1-4.1v50.9L48.5,98.6l-34.7-20L6.7,82.7z M50.7,84v8.2L81,74.8V26.5
      L39.2,50.6v8.2l34.7-20v31.9L50.7,84z M16,74.8l30.3,17.5V84L23.1,70.6V43.9L16,39.8V74.8z M4.5,30.6v48.3l7.1-4.1V34.7l34.7-20
      V6.4L4.5,30.6z M41.4,62.7l7.1,4.1l20.9-12.1v-8.2L41.4,62.7z M18.2,36l7.1,4.1l30.3-17.5l-7.1-4.1L18.2,36z M50.7,14.6l7.1,4.1
      v-8.2l-7.1-4.1V14.6z"/>
  </g>
</svg>
