<?xml version="1.0" encoding="utf-8"?>
<!-- Generator: Adobe Illustrator 16.0.0, SVG Export Plug-In . SVG Version: 6.00 Build 0)  -->
<!DOCTYPE svg PUBLIC "-//W3C//DTD SVG 1.1//EN" "http://www.w3.org/Graphics/SVG/1.1/DTD/svg11.dtd">
<svg version="1.1" id="图层_1" xmlns="http://www.w3.org/2000/svg" xmlns:xlink="http://www.w3.org/1999/xlink" x="0px" y="0px"
	 width="256px" height="256px" viewBox="0 0 256 256" enable-background="new 0 0 256 256" xml:space="preserve">
<path fill="#1A202C" d="M135.282,182.047l28.606-16.51v58.244l-21.326,12.313C138.058,238.699,133.033,240,128,240
	c-5.024,0-10.058-1.301-14.563-3.905l-71.77-41.432c-0.036-0.019-0.063-0.036-0.1-0.063c-8.956-5.215-14.463-14.791-14.463-25.168
	V86.568c0-10.376,5.507-19.952,14.463-25.167c0.037-0.028,0.063-0.046,0.1-0.064l71.77-41.432C117.942,17.301,122.976,16,128,16
	c5.023,0,10.058,1.301,14.563,3.905l35.889,20.716L84.829,94.668c-4.505,2.604-7.282,7.409-7.282,12.616v41.433
	c0,5.206,2.776,10.012,7.291,12.615l35.88,20.715c2.257,1.302,4.77,1.948,7.282,1.948S133.033,183.349,135.282,182.047z
	 M225.255,76.055c-2.248-1.302-5.015-1.302-7.271-0.01c0,0.01-0.011,0.01-0.011,0.01L128,128v29.126L178.451,128v87.379
	l35.881-20.716c0.037-0.019,0.064-0.036,0.101-0.063c8.956-5.215,14.462-14.791,14.462-25.168V82.362
	C228.895,79.759,227.513,77.356,225.255,76.055z"/>
</svg>
